<svg version="1.1" xmlns="http://www.w3.org/2000/svg" viewBox="0 0 2163.8886260986333 1742.2303642241059" width="2163.8886260986333" height="1742.2303642241059">
  <!-- svg-source:excalidraw -->
  
  <defs>
    <style class="style-fonts">
      @font-face {
        font-family: "Virgil";
        src: url("https://excalidraw.com/Virgil.woff2");
      }
      @font-face {
        font-family: "Cascadia";
        src: url("https://excalidraw.com/Cascadia.woff2");
      }
      @font-face {
        font-family: "Assistant";
        src: url("https://excalidraw.com/Assistant-Regular.woff2");
      }
    </style>
    
  </defs>
  <rect x="0" y="0" width="2163.8886260986333" height="1742.2303642241059" fill="#ffffff"></rect><g stroke-linecap="round" transform="translate(568.4444580078123 74.00005594889325) rotate(0 110.66668701171875 40.00000762939453)"><path d="M20 0 C73.37 0.62, 130.87 1.37, 201.33 0 M20 0 C63.37 0.64, 106.97 -0.88, 201.33 0 M201.33 0 C215.99 0.69, 222.36 7.72, 221.33 20 M201.33 0 C214.04 0.54, 221.4 7.24, 221.33 20 M221.33 20 C221.59 31.01, 223.13 40.76, 221.33 60 M221.33 20 C221.48 32.28, 221.68 46.66, 221.33 60 M221.33 60 C219.59 73.98, 213.14 78.44, 201.33 80 M221.33 60 C221.34 72.26, 213.8 81.15, 201.33 80 M201.33 80 C151.92 79.73, 102.95 79.2, 20 80 M201.33 80 C154.4 79.11, 109.45 78.34, 20 80 M20 80 C7.82 81.12, 1.34 74.81, 0 60 M20 80 C8.39 79.62, 1.03 73.49, 0 60 M0 60 C-0.77 43.51, -0.89 29.3, 0 20 M0 60 C-0.31 45.89, 0.83 33.4, 0 20 M0 20 C-0.75 5.46, 6.79 -1.34, 20 0 M0 20 C-1.14 6.98, 8.95 1.26, 20 0" stroke="#1e1e1e" stroke-width="2" fill="none"></path></g><g transform="translate(647.9311752319334 101.50006357828778) rotate(0 31.179969787597656 12.5)"><text x="31.179969787597656" y="17.52" font-family="Virgil, Segoe UI Emoji" font-size="20px" fill="#1e1e1e" text-anchor="middle" style="white-space: pre;" direction="ltr" dominant-baseline="alphabetic">Device</text></g><g stroke-linecap="round" transform="translate(572.6667073567705 263.5556335449219) rotate(0 110.33331298828125 48)"><path d="M24 0 C80.74 -0.6, 141.16 -1.42, 196.67 0 M24 0 C60.9 -0.94, 96.3 0.37, 196.67 0 M196.67 0 C212.04 0.35, 219.79 8.36, 220.67 24 M196.67 0 C212.53 0.3, 222.28 9.37, 220.67 24 M220.67 24 C219.49 36.24, 222.09 46.08, 220.67 72 M220.67 24 C222.02 43.04, 220.53 59.96, 220.67 72 M220.67 72 C220.04 89.3, 213.47 97.12, 196.67 96 M220.67 72 C221.75 88.16, 214.07 95.59, 196.67 96 M196.67 96 C142.36 98.34, 86.67 96.18, 24 96 M196.67 96 C131.97 96.89, 66.54 97.03, 24 96 M24 96 C8.53 94.94, -1.54 89.2, 0 72 M24 96 C9.27 97.08, 1.77 88.75, 0 72 M0 72 C0.09 54.65, -1.73 35.02, 0 24 M0 72 C-0.01 61.88, 0.33 51.3, 0 24 M0 24 C-1.14 8.76, 8.14 1.17, 24 0 M0 24 C-0.27 10.3, 6.14 -2.29, 24 0" stroke="#1e1e1e" stroke-width="2" fill="none"></path></g><g transform="translate(607.8600819905596 286.5556335449219) rotate(0 75.13993835449219 25)"><text x="75.13993835449219" y="17.52" font-family="Virgil, Segoe UI Emoji" font-size="20px" fill="#1e1e1e" text-anchor="middle" style="white-space: pre;" direction="ltr" dominant-baseline="alphabetic">Log Storage</text><text x="75.13993835449219" y="42.519999999999996" font-family="Virgil, Segoe UI Emoji" font-size="20px" fill="#1e1e1e" text-anchor="middle" style="white-space: pre;" direction="ltr" dominant-baseline="alphabetic">&lt;Blob Storage&gt;</text></g><g transform="translate(244.65572626853879 1098.4736726752012) rotate(0 319.2096862792969 137.5)"><text x="0" y="17.52" font-family="Virgil, Segoe UI Emoji" font-size="20px" fill="#1e1e1e" text-anchor="start" style="white-space: pre;" direction="ltr" dominant-baseline="alphabetic">Comments</text><text x="0" y="42.519999999999996" font-family="Virgil, Segoe UI Emoji" font-size="20px" fill="#1e1e1e" text-anchor="start" style="white-space: pre;" direction="ltr" dominant-baseline="alphabetic">Green lines represent responsibility for the parts of the system.</text><text x="0" y="67.52" font-family="Virgil, Segoe UI Emoji" font-size="20px" fill="#1e1e1e" text-anchor="start" style="white-space: pre;" direction="ltr" dominant-baseline="alphabetic">Log Storage: Saving logs as location/device/timestamp.zip</text><text x="0" y="92.52" font-family="Virgil, Segoe UI Emoji" font-size="20px" fill="#1e1e1e" text-anchor="start" style="white-space: pre;" direction="ltr" dominant-baseline="alphabetic"></text><text x="0" y="117.52" font-family="Virgil, Segoe UI Emoji" font-size="20px" fill="#1e1e1e" text-anchor="start" style="white-space: pre;" direction="ltr" dominant-baseline="alphabetic">Observability:</text><text x="0" y="142.52" font-family="Virgil, Segoe UI Emoji" font-size="20px" fill="#1e1e1e" text-anchor="start" style="white-space: pre;" direction="ltr" dominant-baseline="alphabetic">Anomaly detection - histogram for measuring CPU time</text><text x="0" y="167.52" font-family="Virgil, Segoe UI Emoji" font-size="20px" fill="#1e1e1e" text-anchor="start" style="white-space: pre;" direction="ltr" dominant-baseline="alphabetic">Backend - gauge for measuring CPU and memory usage</text><text x="0" y="192.52" font-family="Virgil, Segoe UI Emoji" font-size="20px" fill="#1e1e1e" text-anchor="start" style="white-space: pre;" direction="ltr" dominant-baseline="alphabetic">Backend - histogram for measuring response times for endpoints</text><text x="0" y="217.52" font-family="Virgil, Segoe UI Emoji" font-size="20px" fill="#1e1e1e" text-anchor="start" style="white-space: pre;" direction="ltr" dominant-baseline="alphabetic"></text><text x="0" y="242.52" font-family="Virgil, Segoe UI Emoji" font-size="20px" fill="#1e1e1e" text-anchor="start" style="white-space: pre;" direction="ltr" dominant-baseline="alphabetic"></text><text x="0" y="267.52" font-family="Virgil, Segoe UI Emoji" font-size="20px" fill="#1e1e1e" text-anchor="start" style="white-space: pre;" direction="ltr" dominant-baseline="alphabetic"></text></g><g stroke-linecap="round" transform="translate(583.0000203450518 464.22234090169263) rotate(0 110.33331298828125 55)"><path d="M27.5 0 C61.58 1.23, 101.22 -0.27, 193.17 0 M27.5 0 C70.49 -0.04, 113.27 -0.55, 193.17 0 M193.17 0 C211.57 -1.92, 219.83 7.33, 220.67 27.5 M193.17 0 C210.74 0.49, 221.39 9.34, 220.67 27.5 M220.67 27.5 C219.23 46.97, 220.78 62.68, 220.67 82.5 M220.67 27.5 C220.44 47.79, 219.34 68.94, 220.67 82.5 M220.67 82.5 C219.97 99.91, 212.63 109.27, 193.17 110 M220.67 82.5 C219.97 98.54, 212.32 108.44, 193.17 110 M193.17 110 C156.49 109.41, 120.34 106.56, 27.5 110 M193.17 110 C153.87 109.54, 114.21 109.26, 27.5 110 M27.5 110 C9.42 108.93, 0.05 98.95, 0 82.5 M27.5 110 C8.5 108.45, -1.57 103.01, 0 82.5 M0 82.5 C-0.57 68.12, 0.95 48.49, 0 27.5 M0 82.5 C-0.2 66.4, 0.34 49.56, 0 27.5 M0 27.5 C-0.28 8.36, 9.89 -0.35, 27.5 0 M0 27.5 C-0.1 6.87, 9.48 1.81, 27.5 0" stroke="#1e1e1e" stroke-width="2" fill="none"></path></g><g transform="translate(596.0934270222979 481.72234090169263) rotate(0 97.23990631103516 37.5)"><text x="97.23990631103516" y="17.52" font-family="Virgil, Segoe UI Emoji" font-size="20px" fill="#1e1e1e" text-anchor="middle" style="white-space: pre;" direction="ltr" dominant-baseline="alphabetic">Event Hub</text><text x="97.23990631103516" y="42.519999999999996" font-family="Virgil, Segoe UI Emoji" font-size="20px" fill="#1e1e1e" text-anchor="middle" style="white-space: pre;" direction="ltr" dominant-baseline="alphabetic">Partition per device</text><text x="97.23990631103516" y="67.52" font-family="Virgil, Segoe UI Emoji" font-size="20px" fill="#1e1e1e" text-anchor="middle" style="white-space: pre;" direction="ltr" dominant-baseline="alphabetic">&lt;Event Hub&gt;</text></g><g stroke-linecap="round" transform="translate(581.888977050781 688.1111450195311) rotate(0 110.33331298828125 55)"><path d="M27.5 0 C80.11 2.45, 135.92 0.62, 193.17 0 M27.5 0 C65.84 -0.06, 102.9 0.8, 193.17 0 M193.17 0 C212.45 -0.76, 221.14 7.35, 220.67 27.5 M193.17 0 C213.53 1.05, 220.09 9.99, 220.67 27.5 M220.67 27.5 C221.57 41.7, 219.34 54.03, 220.67 82.5 M220.67 27.5 C220.15 48.97, 221.1 69.29, 220.67 82.5 M220.67 82.5 C221.89 99.86, 212.73 110.61, 193.17 110 M220.67 82.5 C219.33 99.51, 209.23 111.77, 193.17 110 M193.17 110 C155 110.41, 115.05 111.73, 27.5 110 M193.17 110 C145.58 107.87, 97.71 108.14, 27.5 110 M27.5 110 C10.27 109.85, -0.71 99.23, 0 82.5 M27.5 110 C8.12 109.47, -0.27 99.32, 0 82.5 M0 82.5 C-1.63 64.44, -1.28 45.66, 0 27.5 M0 82.5 C0.11 62.25, 0.3 41.54, 0 27.5 M0 27.5 C1.39 7.76, 7.28 0.87, 27.5 0 M0 27.5 C-0.04 7.42, 10.78 1.69, 27.5 0" stroke="#1e1e1e" stroke-width="2" fill="none"></path></g><g transform="translate(602.6723632812498 693.1111450195311) rotate(0 89.5499267578125 50)"><text x="89.5499267578125" y="17.52" font-family="Virgil, Segoe UI Emoji" font-size="20px" fill="#1e1e1e" text-anchor="middle" style="white-space: pre;" direction="ltr" dominant-baseline="alphabetic">Anomaly Detection</text><text x="89.5499267578125" y="42.519999999999996" font-family="Virgil, Segoe UI Emoji" font-size="20px" fill="#1e1e1e" text-anchor="middle" style="white-space: pre;" direction="ltr" dominant-baseline="alphabetic">[interface for </text><text x="89.5499267578125" y="67.52" font-family="Virgil, Segoe UI Emoji" font-size="20px" fill="#1e1e1e" text-anchor="middle" style="white-space: pre;" direction="ltr" dominant-baseline="alphabetic">algorithms]</text><text x="89.5499267578125" y="92.52" font-family="Virgil, Segoe UI Emoji" font-size="20px" fill="#1e1e1e" text-anchor="middle" style="white-space: pre;" direction="ltr" dominant-baseline="alphabetic">&lt;Azure Function&gt;</text></g><g stroke-linecap="round" transform="translate(581.8889770507808 895.3334350585939) rotate(0 110.33331298828125 48)"><path d="M24 0 C75.28 -0.17, 126.72 -1.72, 196.67 0 M24 0 C75.35 -1.62, 125.02 -0.41, 196.67 0 M196.67 0 C211.47 0.79, 221.81 8.78, 220.67 24 M196.67 0 C212.43 1.6, 218.54 6.64, 220.67 24 M220.67 24 C220.27 39.61, 219.65 56.27, 220.67 72 M220.67 24 C221.35 37.62, 220.55 52.03, 220.67 72 M220.67 72 C220.42 87.36, 212.4 97.48, 196.67 96 M220.67 72 C219.62 89.12, 213.96 98.06, 196.67 96 M196.67 96 C128.75 98.35, 60.51 98.35, 24 96 M196.67 96 C145.12 97.38, 93.49 98.1, 24 96 M24 96 C7.01 96.64, -1.15 88.81, 0 72 M24 96 C9.56 96.13, -1.39 85.92, 0 72 M0 72 C-0.06 52.71, -1.21 39.09, 0 24 M0 72 C-0.24 60.41, -0.4 46.16, 0 24 M0 24 C0.26 8.61, 9.02 0.35, 24 0 M0 24 C1.87 7.18, 6.13 -1.49, 24 0" stroke="#1e1e1e" stroke-width="2" fill="none"></path></g><g transform="translate(587.7623901367183 905.8334350585939) rotate(0 104.45989990234375 37.5)"><text x="104.45989990234375" y="17.52" font-family="Virgil, Segoe UI Emoji" font-size="20px" fill="#1e1e1e" text-anchor="middle" style="white-space: pre;" direction="ltr" dominant-baseline="alphabetic">Anomaly Database</text><text x="104.45989990234375" y="42.519999999999996" font-family="Virgil, Segoe UI Emoji" font-size="20px" fill="#1e1e1e" text-anchor="middle" style="white-space: pre;" direction="ltr" dominant-baseline="alphabetic">&lt;Table Storage&gt; </text><text x="104.45989990234375" y="67.52" font-family="Virgil, Segoe UI Emoji" font-size="20px" fill="#1e1e1e" text-anchor="middle" style="white-space: pre;" direction="ltr" dominant-baseline="alphabetic">partitionKey=deviceId</text></g><g stroke-linecap="round" transform="translate(932.999816894531 892.5555216471353) rotate(0 110.33331298828125 48)"><path d="M24 0 C67.56 -1.78, 108.23 0.77, 196.67 0 M24 0 C73.16 0.19, 124.06 0.87, 196.67 0 M196.67 0 C213.19 1.01, 219.08 9.99, 220.67 24 M196.67 0 C213.37 -1.27, 219.02 8.25, 220.67 24 M220.67 24 C220.37 40.34, 221.3 60.47, 220.67 72 M220.67 24 C221.49 41.14, 220.46 57.14, 220.67 72 M220.67 72 C221.32 90, 213.55 96.61, 196.67 96 M220.67 72 C220.21 88.36, 211.23 98.25, 196.67 96 M196.67 96 C128.63 95.95, 62.65 97.35, 24 96 M196.67 96 C132.06 96.74, 68.91 96.27, 24 96 M24 96 C9.45 97.43, -1.23 89.18, 0 72 M24 96 C7.98 93.97, 1.72 88.96, 0 72 M0 72 C-1.27 60.93, -1.49 46.67, 0 24 M0 72 C-0.87 54.12, -0.7 33.47, 0 24 M0 24 C1.5 9.86, 8.96 -1.99, 24 0 M0 24 C-1.94 6.16, 6.06 -0.32, 24 0" stroke="#1e1e1e" stroke-width="2" fill="none"></path></g><g transform="translate(977.2531890869138 915.5555216471353) rotate(0 66.07994079589844 25)"><text x="66.07994079589844" y="17.52" font-family="Virgil, Segoe UI Emoji" font-size="20px" fill="#1e1e1e" text-anchor="middle" style="white-space: pre;" direction="ltr" dominant-baseline="alphabetic">Backend</text><text x="66.07994079589844" y="42.519999999999996" font-family="Virgil, Segoe UI Emoji" font-size="20px" fill="#1e1e1e" text-anchor="middle" style="white-space: pre;" direction="ltr" dominant-baseline="alphabetic">&lt;App Service&gt;</text></g><g stroke-linecap="round" transform="translate(1217.4442952473958 891.4443766276041) rotate(0 128.22057408107844 55)"><path d="M27.5 0 C103.17 0.67, 180.99 0.95, 228.94 0 M27.5 0 C77.38 -2.01, 127.97 -0.91, 228.94 0 M228.94 0 C246.71 1.28, 256.54 10.19, 256.44 27.5 M228.94 0 C248.55 -0.08, 254.47 8.73, 256.44 27.5 M256.44 27.5 C256.43 41.81, 256.18 57.69, 256.44 82.5 M256.44 27.5 C255.75 42.36, 256.5 59.1, 256.44 82.5 M256.44 82.5 C257.65 101.31, 246.04 108.46, 228.94 110 M256.44 82.5 C256.68 101.4, 244.99 109.12, 228.94 110 M228.94 110 C171.25 109.9, 115.76 109.3, 27.5 110 M228.94 110 C188.66 108, 146.99 108.66, 27.5 110 M27.5 110 C8.16 109.95, -1.84 101.31, 0 82.5 M27.5 110 C10.57 108.52, -1.86 98.81, 0 82.5 M0 82.5 C-0.43 67.16, 0.62 51.39, 0 27.5 M0 82.5 C-0.96 70.69, -0.65 56.9, 0 27.5 M0 27.5 C1.68 7.32, 9.9 0.36, 27.5 0 M0 27.5 C2.14 9.16, 9.19 1.76, 27.5 0" stroke="#1e1e1e" stroke-width="2" fill="none"></path></g><g transform="translate(1223.1549816331617 908.9443766276041) rotate(0 122.5098876953125 37.5)"><text x="122.5098876953125" y="17.52" font-family="Virgil, Segoe UI Emoji" font-size="20px" fill="#1e1e1e" text-anchor="middle" style="white-space: pre;" direction="ltr" dominant-baseline="alphabetic">Cache</text><text x="122.5098876953125" y="42.519999999999996" font-family="Virgil, Segoe UI Emoji" font-size="20px" fill="#1e1e1e" text-anchor="middle" style="white-space: pre;" direction="ltr" dominant-baseline="alphabetic">&lt;Table Storage&gt;</text><text x="122.5098876953125" y="67.52" font-family="Virgil, Segoe UI Emoji" font-size="20px" fill="#1e1e1e" text-anchor="middle" style="white-space: pre;" direction="ltr" dominant-baseline="alphabetic">partitionKey=technitianId</text></g><g stroke-linecap="round" transform="translate(1584.110961914062 448.6666666666665) rotate(0 110.33331298828125 48)"><path d="M24 0 C88.46 -0.36, 151.74 2.9, 196.67 0 M24 0 C59.25 -0.86, 94.26 0.75, 196.67 0 M196.67 0 C212.41 1.37, 220.44 8.98, 220.67 24 M196.67 0 C213.99 0.91, 219.07 6.21, 220.67 24 M220.67 24 C222.37 34.86, 221.37 48.61, 220.67 72 M220.67 24 C220.52 42.57, 220.15 60.35, 220.67 72 M220.67 72 C222.29 87.92, 212.08 94.81, 196.67 96 M220.67 72 C220.55 88.06, 210.95 94.21, 196.67 96 M196.67 96 C137.37 97.72, 81.05 97.45, 24 96 M196.67 96 C160.91 96.94, 123.61 96.31, 24 96 M24 96 C9.56 94.77, 1.14 89.86, 0 72 M24 96 C5.8 95.33, -1.78 88.53, 0 72 M0 72 C-1.33 62.34, 1.91 51.38, 0 24 M0 72 C-0.77 62.77, 0.78 52.81, 0 24 M0 24 C-0.02 7.51, 8.42 1.79, 24 0 M0 24 C1.75 6.06, 7.87 -0.71, 24 0" stroke="#1e1e1e" stroke-width="2" fill="none"></path></g><g transform="translate(1644.454322814941 484.1666666666665) rotate(0 49.989952087402344 12.5)"><text x="49.989952087402344" y="17.52" font-family="Virgil, Segoe UI Emoji" font-size="20px" fill="#1e1e1e" text-anchor="middle" style="white-space: pre;" direction="ltr" dominant-baseline="alphabetic">Mobile App</text></g><g stroke-linecap="round" transform="translate(1896.333251953125 449.77791341145826) rotate(0 110.33331298828125 48)"><path d="M24 0 C87.11 -0.64, 146.45 1.59, 196.67 0 M24 0 C85.58 -1.45, 146.41 -0.97, 196.67 0 M196.67 0 C214.27 0.49, 218.82 7.68, 220.67 24 M196.67 0 C212.92 0.85, 220.09 8.74, 220.67 24 M220.67 24 C220.39 40.2, 220.23 53.6, 220.67 72 M220.67 24 C221.63 40.05, 221.3 57.09, 220.67 72 M220.67 72 C222.25 86.46, 211.88 95.89, 196.67 96 M220.67 72 C219.18 88.44, 211.83 94.87, 196.67 96 M196.67 96 C146.9 96.97, 99.7 97.66, 24 96 M196.67 96 C135.05 97.13, 72.12 97.04, 24 96 M24 96 C9.36 95.75, -0.43 86.66, 0 72 M24 96 C8.06 97.08, -1.59 87.7, 0 72 M0 72 C-1.27 56.86, -0.03 45.38, 0 24 M0 72 C-0.15 54.84, -0.47 37.17, 0 24 M0 24 C-0.44 9.6, 7.26 -1.8, 24 0 M0 24 C-0.63 6.73, 7.5 1, 24 0" stroke="#1e1e1e" stroke-width="2" fill="none"></path></g><g transform="translate(1918.0166320800781 472.77791341145826) rotate(0 88.64993286132812 25)"><text x="88.64993286132812" y="17.52" font-family="Virgil, Segoe UI Emoji" font-size="20px" fill="#1e1e1e" text-anchor="middle" style="white-space: pre;" direction="ltr" dominant-baseline="alphabetic">/api/v1/technicians</text><text x="88.64993286132812" y="42.519999999999996" font-family="Virgil, Segoe UI Emoji" font-size="20px" fill="#1e1e1e" text-anchor="middle" style="white-space: pre;" direction="ltr" dominant-baseline="alphabetic">/api/v1/devices</text></g><g stroke-linecap="round" transform="translate(256.3333028157549 262.00005086263025) rotate(0 110.33331298828122 48)"><path d="M24 0 C85.67 1.16, 146.67 -0.06, 196.67 0 M24 0 C63.4 -2.04, 102.56 -2.21, 196.67 0 M196.67 0 C213.24 -0.5, 219.96 9.15, 220.67 24 M196.67 0 C214.57 1.73, 219.44 7.86, 220.67 24 M220.67 24 C221.03 41.5, 220.86 57.41, 220.67 72 M220.67 24 C220.55 34.55, 219.85 46.75, 220.67 72 M220.67 72 C222.41 88.08, 211.04 96.05, 196.67 96 M220.67 72 C218.75 88.67, 210.92 95.18, 196.67 96 M196.67 96 C141.2 96.17, 85.98 96.33, 24 96 M196.67 96 C146.19 95.78, 95.01 95.34, 24 96 M24 96 C8.14 96.27, 0.67 86.2, 0 72 M24 96 C7.04 97.06, -0.01 89.55, 0 72 M0 72 C1 56.61, -0.6 44.79, 0 24 M0 72 C-0.43 60.87, -0.15 49.18, 0 24 M0 24 C-0.98 8.39, 6.33 -1.86, 24 0 M0 24 C0.58 9.07, 9.54 0.07, 24 0" stroke="#1e1e1e" stroke-width="2" fill="none"></path></g><g transform="translate(283.87668355305954 285.00005086263025) rotate(0 82.78993225097656 25)"><text x="82.78993225097656" y="17.52" font-family="Virgil, Segoe UI Emoji" font-size="20px" fill="#1e1e1e" text-anchor="middle" style="white-space: pre;" direction="ltr" dominant-baseline="alphabetic">Authentization</text><text x="82.78993225097656" y="42.519999999999996" font-family="Virgil, Segoe UI Emoji" font-size="20px" fill="#1e1e1e" text-anchor="middle" style="white-space: pre;" direction="ltr" dominant-baseline="alphabetic">&lt;Azure Function&gt;</text></g><g stroke-linecap="round" transform="translate(259.666687011719 464.22234090169275) rotate(0 110.33331298828122 55)"><path d="M27.5 0 C73.35 2.85, 122.44 0.74, 193.17 0 M27.5 0 C91.12 -0.1, 155.85 -1.78, 193.17 0 M193.17 0 C210.72 0.82, 221.69 9.36, 220.67 27.5 M193.17 0 C212.08 -1.53, 222.85 9.65, 220.67 27.5 M220.67 27.5 C222.28 48.19, 220.64 68.98, 220.67 82.5 M220.67 27.5 C221.86 45.05, 220.85 61.62, 220.67 82.5 M220.67 82.5 C218.8 102.68, 211.3 108.14, 193.17 110 M220.67 82.5 C221.81 99.9, 209.94 108.07, 193.17 110 M193.17 110 C146.65 109.2, 95.49 112.28, 27.5 110 M193.17 110 C141.57 111.48, 89.49 111.45, 27.5 110 M27.5 110 C10.97 111.73, 0.87 99.19, 0 82.5 M27.5 110 C7.6 109.27, -1.55 101.17, 0 82.5 M0 82.5 C1.91 69.99, 1.29 59.04, 0 27.5 M0 82.5 C0.66 67.56, 0.94 52.32, 0 27.5 M0 27.5 C-0.84 10.71, 9.36 0, 27.5 0 M0 27.5 C-0.32 7, 8.99 0.81, 27.5 0" stroke="#1e1e1e" stroke-width="2" fill="none"></path></g><g transform="translate(284.23006439209 469.22234090169275) rotate(0 85.76993560791016 50)"><text x="85.76993560791016" y="17.52" font-family="Virgil, Segoe UI Emoji" font-size="20px" fill="#1e1e1e" text-anchor="middle" style="white-space: pre;" direction="ltr" dominant-baseline="alphabetic">Archive Blob Log </text><text x="85.76993560791016" y="42.519999999999996" font-family="Virgil, Segoe UI Emoji" font-size="20px" fill="#1e1e1e" text-anchor="middle" style="white-space: pre;" direction="ltr" dominant-baseline="alphabetic">Storage</text><text x="85.76993560791016" y="67.52" font-family="Virgil, Segoe UI Emoji" font-size="20px" fill="#1e1e1e" text-anchor="middle" style="white-space: pre;" direction="ltr" dominant-baseline="alphabetic">&lt;Archive Blob </text><text x="85.76993560791016" y="92.52" font-family="Virgil, Segoe UI Emoji" font-size="20px" fill="#1e1e1e" text-anchor="middle" style="white-space: pre;" direction="ltr" dominant-baseline="alphabetic">Storage&gt;</text></g><g stroke-linecap="round" transform="translate(10 550.000203450521) rotate(0 97.22221374511719 61.66666666666663)"><path d="M131.78 4.09 C143.9 5.86, 155.31 11.33, 164.75 17.23 C174.18 23.12, 183.54 31.71, 188.41 39.47 C193.27 47.24, 194.5 55.4, 193.95 63.82 C193.39 72.25, 190.75 82.47, 185.09 90.03 C179.43 97.58, 170.22 103.97, 159.99 109.14 C149.75 114.31, 136.5 118.76, 123.66 121.04 C110.83 123.31, 96.21 124, 82.97 122.81 C69.74 121.62, 55.44 118.38, 44.25 113.89 C33.05 109.41, 22.92 103.03, 15.81 95.89 C8.69 88.76, 3.55 79.46, 1.56 71.11 C-0.44 62.75, 0.48 53.6, 3.84 45.77 C7.19 37.93, 13.55 30.5, 21.68 24.1 C29.81 17.7, 40.9 11.39, 52.6 7.36 C64.29 3.34, 77.35 0.01, 91.84 -0.08 C106.33 -0.16, 130.27 5.27, 139.55 6.85 C148.84 8.43, 148.2 8.45, 147.56 9.41" stroke="#1e1e1e" stroke-width="2.5" fill="none" stroke-dasharray="8 10"></path></g><g transform="translate(62.06224060058594 599.0619519440172) rotate(0 45.15997314453125 12.5)"><text x="45.15997314453125" y="17.52" font-family="Virgil, Segoe UI Emoji" font-size="20px" fill="#1e1e1e" text-anchor="middle" style="white-space: pre;" direction="ltr" dominant-baseline="alphabetic">ML Team</text></g><g stroke-linecap="round" transform="translate(898.8887278238931 857.2221883138021) rotate(0 144.99997456868505 82.7777608235678)"><path d="M209.55 8.88 C224.81 11.78, 239.27 19.52, 250.59 26.14 C261.9 32.76, 271.02 39.91, 277.45 48.6 C283.88 57.29, 288.05 68.55, 289.16 78.29 C290.28 88.03, 288.82 98.13, 284.16 107.02 C279.49 115.91, 271.05 124.1, 261.16 131.61 C251.27 139.11, 238.67 146.87, 224.84 152.06 C211.02 157.24, 194.06 160.67, 178.21 162.72 C162.37 164.77, 146.22 165.29, 129.79 164.35 C113.37 163.42, 94.56 161.12, 79.68 157.1 C64.8 153.08, 51.87 146.94, 40.51 140.25 C29.15 133.56, 18.34 125.71, 11.52 116.95 C4.71 108.2, 0.59 97.4, -0.37 87.71 C-1.32 78.02, 0.98 67.82, 5.78 58.83 C10.59 49.85, 18.67 41.33, 28.46 33.8 C38.26 26.28, 50.74 18.9, 64.54 13.66 C78.33 8.42, 95.09 4.42, 111.26 2.37 C127.43 0.33, 144.39 0.06, 161.55 1.37 C178.71 2.69, 205.18 8.38, 214.22 10.26 C223.26 12.14, 217.2 11.49, 215.8 12.65" stroke="#1e1e1e" stroke-width="2.5" fill="none" stroke-dasharray="8 10"></path></g><g stroke-linecap="round" transform="translate(1546.1111704508464 413.88890584309866) rotate(0 144.99997456868505 82.77776082356786)"><path d="M101.21 3.19 C115.48 -1.08, 133.52 -1.4, 150.04 -0.87 C166.55 -0.35, 184.81 2.68, 200.31 6.36 C215.81 10.04, 230.87 14.8, 243.05 21.2 C255.22 27.61, 265.74 36.47, 273.38 44.79 C281.02 53.1, 286.65 61.89, 288.89 71.09 C291.12 80.3, 290.3 90.6, 286.8 100.02 C283.3 109.44, 276.82 119.75, 267.88 127.62 C258.95 135.49, 246.26 141.56, 233.19 147.25 C220.11 152.94, 205.09 158.87, 189.45 161.76 C173.81 164.65, 155.83 164.93, 139.34 164.59 C122.85 164.26, 105.8 163.08, 90.51 159.75 C75.23 156.41, 59.83 150.95, 47.64 144.61 C35.45 138.26, 25.23 130.26, 17.36 121.67 C9.49 113.08, 2.83 102.33, 0.43 93.06 C-1.98 83.78, -0.8 74.98, 2.93 66.01 C6.67 57.05, 14.05 47.2, 22.85 39.25 C31.65 31.31, 39.73 24.66, 55.74 18.34 C71.74 12.03, 105.04 4.16, 118.89 1.37 C132.74 -1.41, 138.36 0.18, 138.84 1.65" stroke="#1e1e1e" stroke-width="2.5" fill="none" stroke-dasharray="8 10"></path></g><g stroke-linecap="round" transform="translate(1863.8886769612632 630.5556742350257) rotate(0 144.99997456868505 50.55557250976574)"><path d="M151.46 0.25 C168.03 -0.4, 186.36 0.84, 202.1 3.27 C217.83 5.7, 233.43 10.58, 245.87 14.84 C258.3 19.11, 269.52 23.38, 276.72 28.87 C283.91 34.36, 288 41.67, 289.05 47.78 C290.09 53.9, 288.44 59.88, 282.99 65.55 C277.54 71.23, 267.31 76.92, 256.34 81.84 C245.38 86.77, 232.07 91.97, 217.21 95.1 C202.34 98.24, 184.48 99.89, 167.18 100.66 C149.88 101.42, 130.71 100.94, 113.38 99.69 C96.06 98.45, 77.76 96.69, 63.23 93.17 C48.69 89.66, 35.96 83.85, 26.18 78.58 C16.41 73.32, 8.67 67.25, 4.59 61.58 C0.51 55.91, -0.37 50.48, 1.69 44.56 C3.75 38.65, 8.78 31.63, 16.96 26.11 C25.13 20.59, 37.18 15.48, 50.73 11.43 C64.29 7.39, 80.14 3.84, 98.28 1.85 C116.42 -0.14, 148.28 -0.43, 159.55 -0.5 C170.83 -0.58, 166.33 0.37, 165.92 1.39" stroke="#1e1e1e" stroke-width="2.5" fill="none" stroke-dasharray="8 10"></path></g><g transform="translate(1916.4882674173118 668.3630585963679) rotate(0 92.36991882324219 12.5)"><text x="92.36991882324219" y="17.52" font-family="Virgil, Segoe UI Emoji" font-size="20px" fill="#1e1e1e" text-anchor="middle" style="white-space: pre;" direction="ltr" dominant-baseline="alphabetic">3rd Party provider</text></g><g stroke-linecap="round" transform="translate(1136.1111704508467 10) rotate(0 144.99997456868505 82.77776082356783)"><path d="M121.7 1.3 C136.88 -1.33, 156.4 -0.14, 172.81 1.75 C189.22 3.64, 205.82 7.78, 220.16 12.66 C234.5 17.53, 248.47 23.66, 258.84 30.99 C269.21 38.33, 277.02 47.74, 282.37 56.65 C287.72 65.57, 291.25 75.02, 290.93 84.49 C290.62 93.97, 286.55 104.75, 280.5 113.49 C274.44 122.23, 265.52 129.92, 254.59 136.94 C243.66 143.96, 229.57 151.11, 214.92 155.62 C200.26 160.13, 183.04 162.73, 166.68 163.98 C150.31 165.24, 132.74 165, 116.73 163.14 C100.72 161.28, 84.65 157.66, 70.62 152.82 C56.58 147.99, 42.9 141.41, 32.52 134.13 C22.14 126.86, 13.79 117.94, 8.34 109.18 C2.9 100.42, -0.43 90.79, -0.15 81.57 C0.13 72.35, 4.05 62.81, 10.03 53.87 C16 44.92, 24.81 35.18, 35.71 27.91 C46.61 20.63, 58.41 14.94, 75.42 10.2 C92.43 5.45, 124.76 0.69, 137.76 -0.56 C150.76 -1.8, 153.13 1.22, 153.42 2.75" stroke="#1e1e1e" stroke-width="2.5" fill="none" stroke-dasharray="8 10"></path></g><g transform="translate(1198.5907505309187 67.74504481378494) rotate(0 82.48992919921875 25)"><text x="82.48992919921875" y="17.52" font-family="Virgil, Segoe UI Emoji" font-size="20px" fill="#1e1e1e" text-anchor="middle" style="white-space: pre;" direction="ltr" dominant-baseline="alphabetic">Service Support </text><text x="82.48992919921875" y="42.519999999999996" font-family="Virgil, Segoe UI Emoji" font-size="20px" fill="#1e1e1e" text-anchor="middle" style="white-space: pre;" direction="ltr" dominant-baseline="alphabetic">Application Team</text></g><g stroke-linecap="round" transform="translate(237.7777608235677 245.55562337239581) rotate(0 620.0000254313152 406.11114501953114)"><path d="M32 0 C378.47 1.56, 726.73 0.98, 1208 0 M1208 0 C1229.44 -0.85, 1238.48 11.27, 1240 32 M1240 32 C1241.84 215.38, 1241.36 396.89, 1240 780.22 M1240 780.22 C1239.94 802.1, 1227.62 813.43, 1208 812.22 M1208 812.22 C778.27 810.75, 348.24 810.18, 32 812.22 M32 812.22 C10.66 813.55, 0.11 799.89, 0 780.22 M0 780.22 C-0.97 538.19, -0.73 296.85, 0 32 M0 32 C-0.6 8.95, 11.55 -0.99, 32 0" stroke="#1e1e1e" stroke-width="2.5" fill="none" stroke-dasharray="8 10"></path></g><g transform="translate(258.8888549804687 1017.7779134114583) rotate(0 282.5397644042969 12.5)"><text x="0" y="17.52" font-family="Virgil, Segoe UI Emoji" font-size="20px" fill="#1e1e1e" text-anchor="start" style="white-space: pre;" direction="ltr" dominant-baseline="alphabetic">Cloud Platform Team (without Backend &amp; ML algorithms)</text></g><g stroke-linecap="round" transform="translate(600.0001017252603 709.9999999999998) rotate(0 84.44442749023438 31.666666666666686)"><path d="M54.51 1.56 C65.75 -0.21, 83.12 0.27, 96.04 1.12 C108.97 1.96, 121.62 4.08, 132.05 6.64 C142.48 9.2, 152.54 12.27, 158.63 16.49 C164.72 20.71, 168.42 27.1, 168.58 31.96 C168.75 36.82, 165.61 41.49, 159.6 45.65 C153.6 49.81, 143.54 54.13, 132.55 56.93 C121.56 59.72, 106.93 61.69, 93.67 62.42 C80.41 63.15, 65.1 62.83, 53.01 61.33 C40.93 59.82, 29.51 57.03, 21.17 53.42 C12.83 49.8, 6.08 44.64, 2.98 39.64 C-0.12 34.64, -0.63 28.25, 2.57 23.39 C5.77 18.54, 12.71 14.14, 22.17 10.52 C31.63 6.91, 52.24 3.03, 59.34 1.69 C66.44 0.35, 64.27 1.87, 64.78 2.48" stroke="#1e1e1e" stroke-width="2.5" fill="none" stroke-dasharray="8 10"></path></g><g stroke-linecap="round"><g transform="translate(1009.6628292896382 856.6658336357309) rotate(0 122.53660314102956 -340.7443463627618)"><path d="M-1.11 0.24 C39.7 -113.48, 204.85 -567.71, 246 -681.32 M0.51 -0.68 C41.14 -114.27, 204.72 -566.47, 245.53 -679.7" stroke="#2f9e44" stroke-width="2" fill="none"></path></g></g><mask></mask><g stroke-linecap="round"><g transform="translate(1404.9565325753906 137.1452933987309) rotate(0 137.86174662789858 137.97885465024535)"><path d="M-1.08 0.64 C45.05 46.95, 230.01 231.19, 276.21 277.11 M0.56 -0.06 C46.62 46, 229.68 229.31, 275.52 275.59" stroke="#2f9e44" stroke-width="2" fill="none"></path></g></g><mask></mask><g stroke-linecap="round"><g transform="translate(1982.2223917643228 637.7779134114583) rotate(0 0.5555216471352651 -47.77781168619788)"><path d="M-0.39 0.2 C-0.09 -15.81, 0.84 -78.99, 1.23 -95.02 M1.6 -0.74 C1.81 -16.59, 0.34 -81.16, 0.35 -96.86" stroke="#2f9e44" stroke-width="2" fill="none"></path></g></g><mask></mask><g stroke-linecap="round"><g transform="translate(197.40214531072883 636.5016006387152) rotate(0 206.63665365376227 44.34084818935992)"><path d="M0.03 0.22 C68.61 15.03, 343.34 74.6, 412.31 89.46 M-1.41 -0.71 C67.46 13.72, 345.38 73.07, 414.51 87.74" stroke="#2f9e44" stroke-width="2" fill="none"></path></g></g><mask></mask><g mask="url(#mask-FLzioMaxf6nN8sH11dq56)" stroke-linecap="round"><g transform="translate(560.0001017252603 118.5610162404065) rotate(0 -99.20392720121524 71.21951731111187)"><path d="M0.75 1.02 C-22.76 11.4, -109.01 38.61, -142.17 62.26 C-175.34 85.91, -188.8 129.76, -198.26 142.93 M-0.32 0.51 C-23.89 11.07, -109.99 40.26, -143.1 63.65 C-176.2 87.04, -189.64 127.82, -198.95 140.84" stroke="#1e1e1e" stroke-width="2" fill="none"></path></g><g transform="translate(560.0001017252603 118.5610162404065) rotate(0 -99.20392720121524 71.21951731111187)"><path d="M-195.11 116.14 C-194.2 121.38, -197.18 126.67, -198.95 140.84 M-195.11 116.14 C-196.75 124.64, -197.22 132.19, -198.95 140.84" stroke="#1e1e1e" stroke-width="2" fill="none"></path></g><g transform="translate(560.0001017252603 118.5610162404065) rotate(0 -99.20392720121524 71.21951731111187)"><path d="M-180.13 124.39 C-182.33 128.01, -188.43 131.58, -198.95 140.84 M-180.13 124.39 C-186.84 129.93, -192.41 134.67, -198.95 140.84" stroke="#1e1e1e" stroke-width="2" fill="none"></path></g></g><mask id="mask-FLzioMaxf6nN8sH11dq56"><rect x="0" y="0" fill="#fff" width="858.4079561276908" height="361.00005086263025"></rect><rect x="375.82785288492823" y="168.6111958821615" fill="#000" width="83.89991760253906" height="25" opacity="1"></rect></mask><g transform="translate(375.82785288492823 168.6111958821615) rotate(0 85.06895433661896 21.669664604996484)"><text x="41.94995880126953" y="17.52" font-family="Virgil, Segoe UI Emoji" font-size="20px" fill="#1e1e1e" text-anchor="middle" style="white-space: pre;" direction="ltr" dominant-baseline="alphabetic">device id</text></g><g mask="url(#mask-tP35zfRY3rhch7wCkmJ_M)" stroke-linecap="round"><g transform="translate(413.5555521647131 283.06740803804087) rotate(0 90.32932398355479 -64.03366841517928)"><path d="M-0.33 -0.38 C12.09 -10.53, 45.36 -39.34, 75.38 -60.49 C105.39 -81.65, 162.14 -115.91, 179.77 -127.31 M1.69 -1.62 C13.89 -11.68, 44.37 -38.08, 74.45 -59.35 C104.53 -80.62, 164.34 -117.77, 182.2 -129.25" stroke="#1e1e1e" stroke-width="2" fill="none"></path></g><g transform="translate(413.5555521647131 283.06740803804087) rotate(0 90.32932398355479 -64.03366841517928)"><path d="M166.94 -109.45 C171.89 -116.67, 176.91 -125.55, 182.2 -129.25 M166.94 -109.45 C172.02 -116, 176.97 -123.21, 182.2 -129.25" stroke="#1e1e1e" stroke-width="2" fill="none"></path></g><g transform="translate(413.5555521647131 283.06740803804087) rotate(0 90.32932398355479 -64.03366841517928)"><path d="M157.78 -123.9 C166.17 -125.74, 174.58 -129.27, 182.2 -129.25 M157.78 -123.9 C166.25 -125.13, 174.53 -127.09, 182.2 -129.25" stroke="#1e1e1e" stroke-width="2" fill="none"></path></g></g><mask id="mask-tP35zfRY3rhch7wCkmJ_M"><rect x="0" y="0" fill="#fff" width="694.2142001318227" height="511.1347448683994"></rect><rect x="438.96899668375636" y="210.83343505859375" fill="#000" width="99.83992004394531" height="25" opacity="1"></rect></mask><g transform="translate(438.96899668375625 210.83343505859375) rotate(0 65.52049092955775 7.420333808532433)"><text x="49.919960021972656" y="17.52" font-family="Virgil, Segoe UI Emoji" font-size="20px" fill="#1e1e1e" text-anchor="middle" style="white-space: pre;" direction="ltr" dominant-baseline="alphabetic">SAS token</text></g><g mask="url(#mask-ZtcDeXoAIsdkPVMstXHfj)" stroke-linecap="round"><g transform="translate(672.2221883138018 160.00010172526044) rotate(0 -0.5555216471353788 61.11109415690103)"><path d="M-0.49 -1.11 C-0.96 19.61, -1.73 102.58, -1.91 123.32 M1.46 0.93 C1.29 21.42, 1.06 101.66, 0.38 121.77" stroke="#1e1e1e" stroke-width="2" fill="none"></path></g><g transform="translate(672.2221883138018 160.00010172526044) rotate(0 -0.5555216471353788 61.11109415690103)"><path d="M-7.79 98.14 C-6.75 105.74, 0 115.19, 0.38 121.77 M-7.79 98.14 C-4.68 107.65, -1.33 115.74, 0.38 121.77" stroke="#1e1e1e" stroke-width="2" fill="none"></path></g><g transform="translate(672.2221883138018 160.00010172526044) rotate(0 -0.5555216471353788 61.11109415690103)"><path d="M9.31 98.42 C3.91 105.84, 4.22 115.19, 0.38 121.77 M9.31 98.42 C5.69 107.88, 2.31 115.87, 0.38 121.77" stroke="#1e1e1e" stroke-width="2" fill="none"></path></g></g><mask id="mask-ZtcDeXoAIsdkPVMstXHfj"><rect x="0" y="0" fill="#fff" width="773.3332316080725" height="382.2222900390625"></rect><rect x="564.2067515055337" y="208.61119588216144" fill="#000" width="214.91983032226562" height="25" opacity="1"></rect></mask><g transform="translate(564.2067515055336 208.6111958821615) rotate(0 107.78935378283262 12.494840886071323)"><text x="107.45991516113281" y="17.52" font-family="Virgil, Segoe UI Emoji" font-size="20px" fill="#1e1e1e" text-anchor="middle" style="white-space: pre;" direction="ltr" dominant-baseline="alphabetic">log (.zip) + SAS token</text></g><g mask="url(#mask-WJw0gl9gHqm_iJjmu7UxI)" stroke-linecap="round"><g transform="translate(561.026744434902 364.5510475819895) rotate(0 -94.9662471896705 47.168979993184934)"><path d="M0.87 -0.01 C-30.66 16.01, -157.8 79.49, -189.67 95.3 M-0.13 -1.06 C-31.75 14.71, -158.61 78.04, -190.48 93.68" stroke="#1e1e1e" stroke-width="2" fill="none"></path></g><g transform="translate(561.026744434902 364.5510475819895) rotate(0 -94.9662471896705 47.168979993184934)"><path d="M-173.22 75.59 C-177.83 80.84, -180.67 84.39, -190.48 93.68 M-173.22 75.59 C-178.5 81.66, -185.51 88.11, -190.48 93.68" stroke="#1e1e1e" stroke-width="2" fill="none"></path></g><g transform="translate(561.026744434902 364.5510475819895) rotate(0 -94.9662471896705 47.168979993184934)"><path d="M-165.63 90.91 C-172.09 92.25, -176.9 91.84, -190.48 93.68 M-165.63 90.91 C-173.49 91.76, -183.12 92.94, -190.48 93.68" stroke="#1e1e1e" stroke-width="2" fill="none"></path></g></g><mask id="mask-WJw0gl9gHqm_iJjmu7UxI"><rect x="0" y="0" fill="#fff" width="850.959238814243" height="558.8890075683594"></rect><rect x="380.4905662149581" y="399.22002757517447" fill="#000" width="171.13986206054688" height="25" opacity="1"></rect></mask><g transform="translate(380.4905662149579 399.2200275751744) rotate(0 85.73329117283228 12.450020365864049)"><text x="85.56993103027344" y="17.52" font-family="Virgil, Segoe UI Emoji" font-size="20px" fill="#1e1e1e" text-anchor="middle" style="white-space: pre;" direction="ltr" dominant-baseline="alphabetic">tierToCool &gt; 30d</text></g><g mask="url(#mask-L93FOwJXGACEKTXYQFuzJ)" stroke-linecap="round"><g transform="translate(676.8446436773372 361.1111958821615) rotate(0 1.3511276445690328 51.0555725097656)"><path d="M0.53 -0.93 C0.85 15.99, 1.44 84.18, 1.92 101.3 M-0.65 1.2 C0.05 18.27, 3.62 85.46, 4.22 102.41" stroke="#1e1e1e" stroke-width="2" fill="none"></path></g><g transform="translate(676.8446436773372 361.1111958821615) rotate(0 1.3511276445690328 51.0555725097656)"><path d="M-5.39 79.33 C-4.09 84.91, -1.02 94.27, 4.22 102.41 M-5.39 79.33 C-3.07 85.96, -1.13 92.45, 4.22 102.41" stroke="#1e1e1e" stroke-width="2" fill="none"></path></g><g transform="translate(676.8446436773372 361.1111958821615) rotate(0 1.3511276445690328 51.0555725097656)"><path d="M11.7 78.56 C7.87 84.44, 5.83 94.04, 4.22 102.41 M11.7 78.56 C9.36 85.49, 6.65 92.2, 4.22 102.41" stroke="#1e1e1e" stroke-width="2" fill="none"></path></g></g><mask id="mask-L93FOwJXGACEKTXYQFuzJ"><rect x="0" y="0" fill="#fff" width="779.5468989664753" height="563.2223409016926"></rect><rect x="594.9158488365547" y="399.6667683919271" fill="#000" width="166.55984497070312" height="25" opacity="1"></rect></mask><g transform="translate(594.9158488365547 399.6667683919272) rotate(0 83.71360152417793 12.187226937701894)"><text x="83.27992248535156" y="17.52" font-family="Virgil, Segoe UI Emoji" font-size="20px" fill="#1e1e1e" text-anchor="middle" style="white-space: pre;" direction="ltr" dominant-baseline="alphabetic">trigger on upload</text></g><g mask="url(#mask-WYoqyF7sOgdn08P2kvTZc)" stroke-linecap="round"><g transform="translate(691.5064237440445 575.5556742350261) rotate(0 -2.075335963792611 55.00002543131501)"><path d="M0.27 0.92 C-0.61 19.04, -4.66 91.26, -5.35 109.32 M-1.04 0.36 C-1.57 18.56, -2.7 92.19, -3.27 110.5" stroke="#1e1e1e" stroke-width="2" fill="none"></path></g><g transform="translate(691.5064237440445 575.5556742350261) rotate(0 -2.075335963792611 55.00002543131501)"><path d="M-11.3 86.82 C-7.26 91.79, -7.57 101.28, -3.27 110.5 M-11.3 86.82 C-8.52 92.47, -7.05 97.73, -3.27 110.5" stroke="#1e1e1e" stroke-width="2" fill="none"></path></g><g transform="translate(691.5064237440445 575.5556742350261) rotate(0 -2.075335963792611 55.00002543131501)"><path d="M5.8 87.2 C4.79 92.09, -0.56 101.48, -3.27 110.5 M5.8 87.2 C4.47 92.66, 1.82 97.83, -3.27 110.5" stroke="#1e1e1e" stroke-width="2" fill="none"></path></g></g><mask id="mask-WYoqyF7sOgdn08P2kvTZc"><rect x="0" y="0" fill="#fff" width="795.6570956716297" height="785.5557250976561"></rect><rect x="596.6211741449979" y="605.5556996663411" fill="#000" width="185.6198272705078" height="50" opacity="1"></rect></mask><g transform="translate(596.6211741449979 605.5556996663412) rotate(0 92.34606001563378 25.43184980547062)"><text x="92.8099136352539" y="17.52" font-family="Virgil, Segoe UI Emoji" font-size="20px" fill="#1e1e1e" text-anchor="middle" style="white-space: pre;" direction="ltr" dominant-baseline="alphabetic">process events by </text><text x="92.8099136352539" y="42.519999999999996" font-family="Virgil, Segoe UI Emoji" font-size="20px" fill="#1e1e1e" text-anchor="middle" style="white-space: pre;" direction="ltr" dominant-baseline="alphabetic">timestamp</text></g><g mask="url(#mask-f1_PfJhhG2WS2L84KrQvJ)" stroke-linecap="round"><g transform="translate(682.2222900390623 806.6667683919269) rotate(0 1.0690889799204797 43.833333333333485)"><path d="M-0.73 -0.3 C-0.54 14.18, 0.51 72.91, 1.18 87.51 M1.08 -1.5 C1.65 13.11, 3.04 73.97, 3.39 88.96" stroke="#1e1e1e" stroke-width="2" fill="none"></path></g><g transform="translate(682.2222900390623 806.6667683919269) rotate(0 1.0690889799204797 43.833333333333485)"><path d="M-5.7 65.67 C-3.34 71.12, -0.39 81.68, 3.39 88.96 M-5.7 65.67 C-3.98 71.51, -0.44 78.6, 3.39 88.96" stroke="#1e1e1e" stroke-width="2" fill="none"></path></g><g transform="translate(682.2222900390623 806.6667683919269) rotate(0 1.0690889799204797 43.833333333333485)"><path d="M11.39 65.27 C8.63 70.74, 6.45 81.41, 3.39 88.96 M11.39 65.27 C8.53 71.13, 7.46 78.31, 3.39 88.96" stroke="#1e1e1e" stroke-width="2" fill="none"></path></g></g><mask id="mask-f1_PfJhhG2WS2L84KrQvJ"><rect x="0" y="0" fill="#fff" width="784.3604679989032" height="994.3334350585939"></rect><rect x="596.7914629423226" y="825.5001017252604" fill="#000" width="172.9998321533203" height="50" opacity="1"></rect></mask><g transform="translate(596.7914629423225 825.5001017252604) rotate(0 86.76120935618877 24.89713345699016)"><text x="86.49991607666016" y="17.52" font-family="Virgil, Segoe UI Emoji" font-size="20px" fill="#1e1e1e" text-anchor="middle" style="white-space: pre;" direction="ltr" dominant-baseline="alphabetic">store unresolved </text><text x="86.49991607666016" y="42.519999999999996" font-family="Virgil, Segoe UI Emoji" font-size="20px" fill="#1e1e1e" text-anchor="middle" style="white-space: pre;" direction="ltr" dominant-baseline="alphabetic">anomalies</text></g><g mask="url(#mask-Q9pqGVmWjEoL0EYMyeR2c)" stroke-linecap="round"><g transform="translate(803.5556030273433 927.7949573484079) rotate(0 64.22210693359386 -11.875702847024343)"><path d="M-0.71 -0.73 C6.25 -6.37, 20.31 -35.79, 41.79 -34.05 C63.28 -32.32, 113.58 2.03, 128.21 9.68 M1.12 1.51 C7.9 -4.49, 19.7 -37.45, 40.74 -35.96 C61.77 -34.47, 112.98 2.82, 127.32 10.45" stroke="#1e1e1e" stroke-width="2" fill="none"></path></g><g transform="translate(803.5556030273433 927.7949573484079) rotate(0 64.22210693359386 -11.875702847024343)"><path d="M102.86 5.29 C109.03 6.65, 118.32 8.17, 127.32 10.45 M102.86 5.29 C108.89 6.38, 113.53 8.1, 127.32 10.45" stroke="#1e1e1e" stroke-width="2" fill="none"></path></g><g transform="translate(803.5556030273433 927.7949573484079) rotate(0 64.22210693359386 -11.875702847024343)"><path d="M111.9 -9.22 C115.32 -3.53, 121.87 2.37, 127.32 10.45 M111.9 -9.22 C116.14 -4.95, 118.84 -0.13, 127.32 10.45" stroke="#1e1e1e" stroke-width="2" fill="none"></path></g></g><mask id="mask-Q9pqGVmWjEoL0EYMyeR2c"><rect x="0" y="0" fill="#fff" width="1031.999816894531" height="1072.9665962339882"></rect><rect x="817.6656545003252" y="880.8334350585935" fill="#000" width="55.779937744140625" height="25" opacity="1"></rect></mask><g transform="translate(817.6656545003252 880.8334350585935) rotate(0 49.64007684203483 34.182274123175375)"><text x="27.889968872070312" y="17.52" font-family="Virgil, Segoe UI Emoji" font-size="20px" fill="#1e1e1e" text-anchor="middle" style="white-space: pre;" direction="ltr" dominant-baseline="alphabetic">inform</text></g><g mask="url(#mask-7QyEmifbsR2mKPPCfAzQN)" stroke-linecap="round"><g transform="translate(905.9790216767476 967.5009308767617) rotate(0 -51.211709324702156 12.180971900955456)"><path d="M0.84 -0.44 C-6.84 5.33, -29.45 35.69, -46.48 33.98 C-63.5 32.28, -91.91 -3.33, -101.31 -10.69 M-0.18 -1.72 C-8.02 4.25, -30.8 36.44, -47.69 35.13 C-64.57 33.83, -92.29 -2.19, -101.49 -9.54" stroke="#1e1e1e" stroke-width="2" fill="none"></path></g><g transform="translate(905.9790216767476 967.5009308767617) rotate(0 -51.211709324702156 12.180971900955456)"><path d="M-78.9 1.17 C-85.59 -2.35, -92.09 -2.51, -101.49 -9.54 M-78.9 1.17 C-85.41 -2.3, -91.7 -5.32, -101.49 -9.54" stroke="#1e1e1e" stroke-width="2" fill="none"></path></g><g transform="translate(905.9790216767476 967.5009308767617) rotate(0 -51.211709324702156 12.180971900955456)"><path d="M-91.07 13.18 C-94.45 6.38, -97.72 3.02, -101.49 -9.54 M-91.07 13.18 C-94.22 6.42, -97.19 0.12, -101.49 -9.54" stroke="#1e1e1e" stroke-width="2" fill="none"></path></g></g><mask id="mask-7QyEmifbsR2mKPPCfAzQN"><rect x="0" y="0" fill="#fff" width="1108.402440326152" height="1112.5817053994522"></rect><rect x="825.9301401774087" y="989.7222900390625" fill="#000" width="68.13992309570312" height="25" opacity="1"></rect></mask><g transform="translate(825.9301401774087 989.7222900390624) rotate(0 29.724469648484614 -9.979493202339654)"><text x="34.06996154785156" y="17.52" font-family="Virgil, Segoe UI Emoji" font-size="20px" fill="#1e1e1e" text-anchor="middle" style="white-space: pre;" direction="ltr" dominant-baseline="alphabetic">resolve</text></g><g stroke-linecap="round"><g transform="translate(1216.4442952473958 931.5598848651916) rotate(0 -30.888926188151117 0.3605118208197382)"><path d="M-0.51 0.18 C-10.66 0.42, -51.82 1.78, -62.03 1.7 M1.43 -0.77 C-8.81 -0.87, -52.45 -0.12, -63.1 0.1" stroke="#1e1e1e" stroke-width="2" fill="none"></path></g><g transform="translate(1216.4442952473958 931.5598848651916) rotate(0 -30.888926188151117 0.3605118208197382)"><path d="M-39.77 -8.88 C-44.32 -7.52, -47.85 -5.2, -63.1 0.1 M-39.77 -8.88 C-45.5 -5.94, -50.86 -4.43, -63.1 0.1" stroke="#1e1e1e" stroke-width="2" fill="none"></path></g><g transform="translate(1216.4442952473958 931.5598848651916) rotate(0 -30.888926188151117 0.3605118208197382)"><path d="M-39.46 8.22 C-44.11 6.01, -47.71 4.76, -63.1 0.1 M-39.46 8.22 C-45.14 7.43, -50.57 5.21, -63.1 0.1" stroke="#1e1e1e" stroke-width="2" fill="none"></path></g></g><mask></mask><g stroke-linecap="round"><g transform="translate(1154.6664428710935 955.2691759108124) rotate(0 30.888926188151117 1.4119753063827716)"><path d="M0.88 -0.55 C11.18 -0.24, 50.77 1.58, 60.82 2.26 M-0.11 1.78 C10.64 2.2, 52.99 3.53, 63.02 3.5" stroke="#1e1e1e" stroke-width="2" fill="none"></path></g><g transform="translate(1154.6664428710935 955.2691759108124) rotate(0 30.888926188151117 1.4119753063827716)"><path d="M39.38 11.64 C43.59 8.09, 48.72 6.88, 63.02 3.5 M39.38 11.64 C48.69 8.89, 55.93 4.79, 63.02 3.5" stroke="#1e1e1e" stroke-width="2" fill="none"></path></g><g transform="translate(1154.6664428710935 955.2691759108124) rotate(0 30.888926188151117 1.4119753063827716)"><path d="M39.68 -5.46 C43.89 -5.28, 48.95 -2.76, 63.02 3.5 M39.68 -5.46 C49.03 -2.02, 56.17 0.05, 63.02 3.5" stroke="#1e1e1e" stroke-width="2" fill="none"></path></g></g><mask></mask><g mask="url(#mask-MIhOIvqZO1GE5TDnkJXqY)" stroke-linecap="round"><g transform="translate(1006.6667683919268 893.3334350585935) rotate(0 303.88895670572924 -180.55557250976557)"><path d="M0.03 -0.73 C57.16 -23.83, 242.57 -79.66, 343.74 -139.8 C444.92 -199.95, 563.09 -324.52, 607.06 -361.59 M-1.41 1.51 C56.02 -21.88, 244.26 -81.49, 346.09 -141.82 C447.92 -202.16, 565.98 -323.87, 609.58 -360.53" stroke="#1e1e1e" stroke-width="2" fill="none"></path></g><g transform="translate(1006.6667683919268 893.3334350585935) rotate(0 303.88895670572924 -180.55557250976557)"><path d="M598.01 -338.37 C601.41 -347.96, 607.34 -356.4, 609.58 -360.53 M598.01 -338.37 C601.78 -343.37, 604.18 -349.74, 609.58 -360.53" stroke="#1e1e1e" stroke-width="2" fill="none"></path></g><g transform="translate(1006.6667683919268 893.3334350585935) rotate(0 303.88895670572924 -180.55557250976557)"><path d="M586.47 -350.99 C594.13 -355.79, 604.45 -359.44, 609.58 -360.53 M586.47 -350.99 C593.22 -352.6, 598.62 -355.69, 609.58 -360.53" stroke="#1e1e1e" stroke-width="2" fill="none"></path></g></g><mask id="mask-MIhOIvqZO1GE5TDnkJXqY"><rect x="0" y="0" fill="#fff" width="1714.4446818033853" height="1354.4445800781245"></rect><rect x="1282.491195678711" y="740.8334350585935" fill="#000" width="137.23989868164062" height="25" opacity="1"></rect></mask><g transform="translate(1282.491195678711 740.8334350585936) rotate(0 28.258541481736984 -27.541812520632476)"><text x="68.61994934082031" y="17.52" font-family="Virgil, Segoe UI Emoji" font-size="20px" fill="#1e1e1e" text-anchor="middle" style="white-space: pre;" direction="ltr" dominant-baseline="alphabetic">anomalies &lt;2&gt;</text></g><g mask="url(#mask-5dGvChy4xmokScdWCWJbZ)" stroke-linecap="round"><g transform="translate(1575.5557250976558 515.5556233723958) rotate(0 -306.666768391927 197.22218831380206)"><path d="M0.29 0.34 C-59.19 15.53, -255.5 25.14, -357.91 90.7 C-460.33 156.27, -571.55 343.23, -614.22 393.73 M-1.01 -0.53 C-60.58 14.35, -257.14 23.08, -358.93 88.95 C-460.73 154.82, -569.28 343.76, -611.78 394.67" stroke="#1e1e1e" stroke-width="2" fill="none"></path></g><g transform="translate(1575.5557250976558 515.5556233723958) rotate(0 -306.666768391927 197.22218831380206)"><path d="M-605.13 370.57 C-606.09 375.56, -606.91 379.51, -611.78 394.67 M-605.13 370.57 C-606.28 376.06, -607.83 382.15, -611.78 394.67" stroke="#1e1e1e" stroke-width="2" fill="none"></path></g><g transform="translate(1575.5557250976558 515.5556233723958) rotate(0 -306.666768391927 197.22218831380206)"><path d="M-591.2 380.49 C-595.12 383.37, -598.95 385.18, -611.78 394.67 M-591.2 380.49 C-595.65 383.51, -600.55 387.21, -611.78 394.67" stroke="#1e1e1e" stroke-width="2" fill="none"></path></g></g><mask id="mask-5dGvChy4xmokScdWCWJbZ"><rect x="0" y="0" fill="#fff" width="2288.88926188151" height="1009.9999999999999"></rect><rect x="1141.53786722819" y="593.0556233723958" fill="#000" width="152.47988891601562" height="25" opacity="1"></rect></mask><g transform="translate(1141.5378672281897 593.0556233723956) rotate(0 127.05677223019302 119.571663630133)"><text x="76.23994445800781" y="17.52" font-family="Virgil, Segoe UI Emoji" font-size="20px" fill="#1e1e1e" text-anchor="middle" style="white-space: pre;" direction="ltr" dominant-baseline="alphabetic">technicianId &lt;1&gt;</text></g><g stroke-linecap="round"><g transform="translate(1896.6667683919268 532.2222900390624) rotate(0 -397.22223917643237 184.44447835286456)"><path d="M0.91 -0.83 C-63.47 43.28, -253.07 203.27, -385.65 264.85 C-518.22 326.43, -726.56 351.13, -794.55 368.66 M-0.08 1.36 C-64.57 45.58, -253.51 204.6, -386.06 266.01 C-518.61 327.43, -727.57 352.86, -795.37 369.86" stroke="#1e1e1e" stroke-width="2" fill="none"></path></g><g transform="translate(1896.6667683919268 532.2222900390624) rotate(0 -397.22223917643237 184.44447835286456)"><path d="M-773.96 356.94 C-782.81 363.32, -790.1 365.97, -795.37 369.86 M-773.96 356.94 C-779.37 359.82, -785.38 364.55, -795.37 369.86" stroke="#1e1e1e" stroke-width="2" fill="none"></path></g><g transform="translate(1896.6667683919268 532.2222900390624) rotate(0 -397.22223917643237 184.44447835286456)"><path d="M-770.67 373.72 C-780.7 374.25, -789.15 371.03, -795.37 369.86 M-770.67 373.72 C-777.12 371.91, -784.06 371.93, -795.37 369.86" stroke="#1e1e1e" stroke-width="2" fill="none"></path></g></g><mask></mask><g transform="translate(726.682616611326 1329.702669386178) rotate(0 248.3722545867443 10.035417412798438)"><text x="248.37225458674433" y="14.065641045778253" font-family="Virgil, Segoe UI Emoji" font-size="16.056667860477457px" fill="#1e1e1e" text-anchor="middle" style="white-space: pre;" direction="ltr" dominant-baseline="alphabetic">Get anomalies from Backend &lt;App Service&gt; to Mobile App </text></g><g stroke-linecap="round" transform="translate(244.16437839513168 1312.8581321573797) rotate(0 681.689240171404 24.192135878649196)"><path d="M12.1 0 C517.31 4.67, 1021.18 5.6, 1351.28 0 M12.1 0 C446.43 5.54, 881.34 5.61, 1351.28 0 M1351.28 0 C1358.06 0.1, 1364.51 2.83, 1363.38 12.1 M1351.28 0 C1358.72 -0.22, 1361.98 4.77, 1363.38 12.1 M1363.38 12.1 C1363.97 16.81, 1364.2 22.73, 1363.38 36.29 M1363.38 12.1 C1363.27 20.92, 1363.79 31.53, 1363.38 36.29 M1363.38 36.29 C1364.92 44.3, 1359.37 49.84, 1351.28 48.38 M1363.38 36.29 C1361.95 44.32, 1361.43 49.43, 1351.28 48.38 M1351.28 48.38 C983.82 50.97, 617.14 51.29, 12.1 48.38 M1351.28 48.38 C866.15 51.41, 380.01 51.47, 12.1 48.38 M12.1 48.38 C3.52 50.05, -0.51 44.41, 0 36.29 M12.1 48.38 C2.56 47.38, -1.13 45.98, 0 36.29 M0 36.29 C-0.13 30.23, 0.81 21.61, 0 12.1 M0 36.29 C-0.41 28.41, 0.07 18.84, 0 12.1 M0 12.1 C0.6 3.28, 4.13 -0.08, 12.1 0 M0 12.1 C-1.45 3.63, 2.69 -0.73, 12.1 0" stroke="#1e1e1e" stroke-width="2" fill="none"></path></g><g stroke-linecap="round" transform="translate(247.18101705025225 1364.4079609518362) rotate(0 81.85534153549042 26.903503861315016)"><path d="M13.45 0 C53.97 -1, 90.25 -0.75, 150.26 0 M13.45 0 C60.65 -1.59, 104.94 -0.89, 150.26 0 M150.26 0 C161.11 -0.44, 163.36 5.37, 163.71 13.45 M150.26 0 C158.68 1, 161.96 4.91, 163.71 13.45 M163.71 13.45 C164.1 25.1, 163.27 32.19, 163.71 40.36 M163.71 13.45 C163.47 23.1, 164.44 33.54, 163.71 40.36 M163.71 40.36 C164.86 49.67, 160.15 53.5, 150.26 53.81 M163.71 40.36 C166.01 47.35, 161.21 53.49, 150.26 53.81 M150.26 53.81 C101.45 55.18, 49.06 53.88, 13.45 53.81 M150.26 53.81 C101.52 55.19, 51.06 53.43, 13.45 53.81 M13.45 53.81 C3.16 52.39, -0.63 47.79, 0 40.36 M13.45 53.81 C3.34 51.63, 0.67 47.68, 0 40.36 M0 40.36 C-0.08 35.12, -1.58 25.74, 0 13.45 M0 40.36 C-0.09 33.93, -0.58 27.74, 0 13.45 M0 13.45 C0.04 3.48, 4.86 0.25, 13.45 0 M0 13.45 C1.75 4.39, 6.04 -0.78, 13.45 0" stroke="#1971c2" stroke-width="2" fill="none"></path></g><g transform="translate(251.07916920041686 1369.047305100481) rotate(0 79.17704976494991 25)"><text x="79.17704976494994" y="17.52" font-family="Virgil, Segoe UI Emoji" font-size="20px" fill="#1971c2" text-anchor="middle" style="white-space: pre;" direction="ltr" dominant-baseline="alphabetic">Request </text><text x="79.17704976494994" y="42.519999999999996" font-family="Virgil, Segoe UI Emoji" font-size="20px" fill="#1971c2" text-anchor="middle" style="white-space: pre;" direction="ltr" dominant-baseline="alphabetic">technicianId &lt;1&gt;</text></g><g stroke-linecap="round" transform="translate(1447.941754584172 1364.567225659233) rotate(0 81.85534153549042 29.193163764405654)"><path d="M14.6 0 C62.48 -0.39, 112.24 -2.01, 149.11 0 M14.6 0 C45.5 1.35, 75.12 1.03, 149.11 0 M149.11 0 C159.83 0.95, 163.55 5.54, 163.71 14.6 M149.11 0 C159.19 -1.86, 164.89 3.02, 163.71 14.6 M163.71 14.6 C164.28 23.57, 163.31 32.42, 163.71 43.79 M163.71 14.6 C164.62 23.72, 163.99 35.75, 163.71 43.79 M163.71 43.79 C163.24 51.57, 157.32 58.57, 149.11 58.39 M163.71 43.79 C165.48 54.61, 159.01 56.97, 149.11 58.39 M149.11 58.39 C101.33 58.07, 52.59 57.66, 14.6 58.39 M149.11 58.39 C121.72 58.13, 92.3 58.04, 14.6 58.39 M14.6 58.39 C3.67 56.51, -0.33 55.26, 0 43.79 M14.6 58.39 C6.12 56.45, 2.28 55.47, 0 43.79 M0 43.79 C0.11 32.45, 0.1 23.81, 0 14.6 M0 43.79 C-0.58 36.75, 0.34 28.33, 0 14.6 M0 14.6 C1.97 4.03, 3.75 -1.13, 14.6 0 M0 14.6 C1.11 6.42, 6.42 1.24, 14.6 0" stroke="#1971c2" stroke-width="2" fill="none"></path></g><g transform="translate(1456.990864710303 1370.470752655091) rotate(0 68.61994934082031 25)"><text x="68.61994934082031" y="17.52" font-family="Virgil, Segoe UI Emoji" font-size="20px" fill="#1971c2" text-anchor="middle" style="white-space: pre;" direction="ltr" dominant-baseline="alphabetic">Response</text><text x="68.61994934082031" y="42.519999999999996" font-family="Virgil, Segoe UI Emoji" font-size="20px" fill="#1971c2" text-anchor="middle" style="white-space: pre;" direction="ltr" dominant-baseline="alphabetic">anomalies &lt;2&gt;</text></g><g stroke-linecap="round" transform="translate(477.6740818948247 1411.0478495956527) rotate(0 54.34649949625344 111.2010264239849)"><path d="M27.17 0 C42.24 1.14, 57.23 0.33, 81.52 0 M27.17 0 C40.89 0.25, 57.12 -1.08, 81.52 0 M81.52 0 C98.55 1.29, 108.73 8.92, 108.69 27.17 M81.52 0 C99 -1.11, 106.5 8.15, 108.69 27.17 M108.69 27.17 C111.49 61.14, 110.97 96.24, 108.69 195.23 M108.69 27.17 C108.96 88.7, 107.89 149.09, 108.69 195.23 M108.69 195.23 C106.91 213.1, 98.33 221.44, 81.52 222.4 M108.69 195.23 C107.91 212.61, 100.1 223.39, 81.52 222.4 M81.52 222.4 C66.38 221.47, 54.53 222.47, 27.17 222.4 M81.52 222.4 C60.31 222.8, 41.38 222.66, 27.17 222.4 M27.17 222.4 C8.83 224.1, 0.74 214.84, 0 195.23 M27.17 222.4 C8.09 224.33, -0.02 214.34, 0 195.23 M0 195.23 C0.45 137.62, -0.63 82.05, 0 27.17 M0 195.23 C-0.8 134.62, -0.47 74.66, 0 27.17 M0 27.17 C0.57 8, 11.03 -1.65, 27.17 0 M0 27.17 C-0.76 7.52, 8.5 -0.31, 27.17 0" stroke="#f08c00" stroke-width="2" fill="none"></path></g><g transform="translate(488.73339981619057 1422.2408022070767) rotate(0 43.695074033327046 100)"><text x="43.69507403332703" y="17.52" font-family="Virgil, Segoe UI Emoji" font-size="20px" fill="#f08c00" text-anchor="middle" style="white-space: pre;" direction="ltr" dominant-baseline="alphabetic">Ask </text><text x="43.69507403332703" y="42.519999999999996" font-family="Virgil, Segoe UI Emoji" font-size="20px" fill="#f08c00" text-anchor="middle" style="white-space: pre;" direction="ltr" dominant-baseline="alphabetic">Cache </text><text x="43.69507403332703" y="67.52" font-family="Virgil, Segoe UI Emoji" font-size="20px" fill="#f08c00" text-anchor="middle" style="white-space: pre;" direction="ltr" dominant-baseline="alphabetic">&lt;Table </text><text x="43.69507403332703" y="92.52" font-family="Virgil, Segoe UI Emoji" font-size="20px" fill="#f08c00" text-anchor="middle" style="white-space: pre;" direction="ltr" dominant-baseline="alphabetic">Storage&gt;</text><text x="43.69507403332703" y="117.52" font-family="Virgil, Segoe UI Emoji" font-size="20px" fill="#f08c00" text-anchor="middle" style="white-space: pre;" direction="ltr" dominant-baseline="alphabetic">for </text><text x="43.69507403332703" y="142.52" font-family="Virgil, Segoe UI Emoji" font-size="20px" fill="#f08c00" text-anchor="middle" style="white-space: pre;" direction="ltr" dominant-baseline="alphabetic">/api/v1/t</text><text x="43.69507403332703" y="167.52" font-family="Virgil, Segoe UI Emoji" font-size="20px" fill="#f08c00" text-anchor="middle" style="white-space: pre;" direction="ltr" dominant-baseline="alphabetic">echnitian</text><text x="43.69507403332703" y="192.52" font-family="Virgil, Segoe UI Emoji" font-size="20px" fill="#f08c00" text-anchor="middle" style="white-space: pre;" direction="ltr" dominant-baseline="alphabetic">s</text></g><g stroke-linecap="round" transform="translate(643.060916758353 1414.5474674928705) rotate(0 262.20120681588486 25.898964667683117)"><path d="M12.95 0 C120.86 -2.23, 227.27 -2.09, 511.45 0 M12.95 0 C127.38 1.51, 242.71 2.21, 511.45 0 M511.45 0 C521.45 -0.35, 525.38 3.07, 524.4 12.95 M511.45 0 C521.29 0.84, 525.26 5.92, 524.4 12.95 M524.4 12.95 C524.95 16.88, 522.81 24.29, 524.4 38.85 M524.4 12.95 C525.14 21.92, 524.76 28.93, 524.4 38.85 M524.4 38.85 C524.38 47.87, 518.71 52, 511.45 51.8 M524.4 38.85 C526.43 45.21, 521.57 51.58, 511.45 51.8 M511.45 51.8 C347.06 51.87, 183.09 50.65, 12.95 51.8 M511.45 51.8 C313.09 50.68, 115.56 50.28, 12.95 51.8 M12.95 51.8 C2.62 50.68, -1.68 49.45, 0 38.85 M12.95 51.8 C5.2 51.69, 1.19 45.22, 0 38.85 M0 38.85 C0.11 32.51, 0.02 26.35, 0 12.95 M0 38.85 C-0.27 32.7, -0.4 27.39, 0 12.95 M0 12.95 C1 3.91, 5.34 0.07, 12.95 0 M0 12.95 C1.82 3.99, 4.66 0.56, 12.95 0" stroke="#e03131" stroke-width="2" fill="none"></path></g><g transform="translate(692.162358405112 1429.445604259029) rotate(0 250.7410471960655 13.751141047618717)"><text x="250.74104719606544" y="19.27359929234237" font-family="Virgil, Segoe UI Emoji" font-size="22.00182567618992px" fill="#e03131" text-anchor="middle" style="white-space: pre;" direction="ltr" dominant-baseline="alphabetic">Call /api/v1/technitians</text></g><g stroke-linecap="round" transform="translate(1235.905414811848 1416.7308414383206) rotate(0 56.77712030577845 101.30703941191177)"><path d="M28.39 0 C42.08 -0.11, 56.49 0.04, 85.17 0 M28.39 0 C43.94 0.66, 59.01 0.8, 85.17 0 M85.17 0 C102.64 -0.04, 113.72 8.04, 113.55 28.39 M85.17 0 C102.21 0.79, 115.51 10.59, 113.55 28.39 M113.55 28.39 C113.11 84.07, 115.22 137.51, 113.55 174.23 M113.55 28.39 C112.57 72.52, 113.73 116.87, 113.55 174.23 M113.55 174.23 C115.53 191.86, 105.96 203.34, 85.17 202.61 M113.55 174.23 C111.43 193.53, 102.52 202.42, 85.17 202.61 M85.17 202.61 C72.85 202.69, 63.06 200.7, 28.39 202.61 M85.17 202.61 C65.31 202.66, 45.9 202.36, 28.39 202.61 M28.39 202.61 C11.39 201.33, 1.68 194.82, 0 174.23 M28.39 202.61 C8.38 200.9, -0.16 193.66, 0 174.23 M0 174.23 C-1.47 124.01, 1.09 72.37, 0 28.39 M0 174.23 C-0.34 129.98, -2.14 87.07, 0 28.39 M0 28.39 C-0.52 10.23, 8.96 -0.73, 28.39 0 M0 28.39 C-2.26 9.38, 11.35 0.08, 28.39 0" stroke="#f08c00" stroke-width="2" fill="none"></path></g><g transform="translate(1242.40201992141 1426.7489519269675) rotate(0 49.61522998968985 100)"><text x="49.61522998968981" y="17.52" font-family="Virgil, Segoe UI Emoji" font-size="20px" fill="#f08c00" text-anchor="middle" style="white-space: pre;" direction="ltr" dominant-baseline="alphabetic">Get </text><text x="49.61522998968981" y="42.519999999999996" font-family="Virgil, Segoe UI Emoji" font-size="20px" fill="#f08c00" text-anchor="middle" style="white-space: pre;" direction="ltr" dominant-baseline="alphabetic">anomalies</text><text x="49.61522998968981" y="67.52" font-family="Virgil, Segoe UI Emoji" font-size="20px" fill="#f08c00" text-anchor="middle" style="white-space: pre;" direction="ltr" dominant-baseline="alphabetic">from</text><text x="49.61522998968981" y="92.52" font-family="Virgil, Segoe UI Emoji" font-size="20px" fill="#f08c00" text-anchor="middle" style="white-space: pre;" direction="ltr" dominant-baseline="alphabetic">Anomaly </text><text x="49.61522998968981" y="117.52" font-family="Virgil, Segoe UI Emoji" font-size="20px" fill="#f08c00" text-anchor="middle" style="white-space: pre;" direction="ltr" dominant-baseline="alphabetic">Database</text><text x="49.61522998968981" y="142.52" font-family="Virgil, Segoe UI Emoji" font-size="20px" fill="#f08c00" text-anchor="middle" style="white-space: pre;" direction="ltr" dominant-baseline="alphabetic">&lt;Table </text><text x="49.61522998968981" y="167.52" font-family="Virgil, Segoe UI Emoji" font-size="20px" fill="#f08c00" text-anchor="middle" style="white-space: pre;" direction="ltr" dominant-baseline="alphabetic">Storage&gt;</text><text x="49.61522998968981" y="192.52" font-family="Virgil, Segoe UI Emoji" font-size="20px" fill="#f08c00" text-anchor="middle" style="white-space: pre;" direction="ltr" dominant-baseline="alphabetic"></text></g><g stroke-linecap="round" transform="translate(415.19057763970414 1364.923041082276) rotate(0 512.992609464121 20.60545434137873)"><path d="M10.3 0 C406.8 3.18, 803.93 4.05, 1015.68 0 M10.3 0 C323.34 0.06, 636.54 -0.19, 1015.68 0 M1015.68 0 C1022.6 1.9, 1027.46 2.77, 1025.99 10.3 M1015.68 0 C1024.8 -1.51, 1024.45 5.04, 1025.99 10.3 M1025.99 10.3 C1026.93 16.68, 1027.3 21.04, 1025.99 30.91 M1025.99 10.3 C1025.68 17.22, 1026.91 25.89, 1025.99 30.91 M1025.99 30.91 C1027.81 39.51, 1024.35 41.59, 1015.68 41.21 M1025.99 30.91 C1025.33 35.93, 1022.25 41.73, 1015.68 41.21 M1015.68 41.21 C806.17 40.2, 596.94 41.04, 10.3 41.21 M1015.68 41.21 C790.04 43.95, 564.3 43.49, 10.3 41.21 M10.3 41.21 C3.32 41.11, -0.87 37.01, 0 30.91 M10.3 41.21 C2.93 42.13, -0.75 36.92, 0 30.91 M0 30.91 C-1.66 26.21, -0.52 19.87, 0 10.3 M0 30.91 C-1.01 24.25, -0.04 18.51, 0 10.3 M0 10.3 C1.1 1.54, 3.06 0.4, 10.3 0 M0 10.3 C1.83 2.81, 2.93 -1.54, 10.3 0" stroke="#2f9e44" stroke-width="2" fill="none"></path></g><g transform="translate(427.5613933631501 1374.941151570923) rotate(0 498.84134285920464 12.5)"><text x="498.84134285920464" y="17.52" font-family="Virgil, Segoe UI Emoji" font-size="20px" fill="#2f9e44" text-anchor="middle" style="white-space: pre;" direction="ltr" dominant-baseline="alphabetic">Processing on Backend &lt;App Service&gt;</text></g><g transform="translate(244.68173163856733 1657.2303642241059) rotate(0 656.929443359375 37.5)"><text x="0" y="17.52" font-family="Virgil, Segoe UI Emoji" font-size="20px" fill="#1e1e1e" text-anchor="start" style="white-space: pre;" direction="ltr" dominant-baseline="alphabetic">Bonus 1: To provide the same functionality and keep the cost minimal, just deploy the infrastructure 6 times in each of the regions.</text><text x="0" y="42.519999999999996" font-family="Virgil, Segoe UI Emoji" font-size="20px" fill="#1e1e1e" text-anchor="start" style="white-space: pre;" direction="ltr" dominant-baseline="alphabetic">Bonus 2: Add Archive Blob Storage (as shown in the diagram).</text><text x="0" y="67.52" font-family="Virgil, Segoe UI Emoji" font-size="20px" fill="#1e1e1e" text-anchor="start" style="white-space: pre;" direction="ltr" dominant-baseline="alphabetic">Bonus 3: Add a new table to the cache containing locations as the keys and a list of devices as a value. PK = &lt;location&gt;.</text></g></svg>